<svg xmlns="http://www.w3.org/2000/svg" width="22" height="22" viewBox="0 0 22 22"><defs><style>.a{fill:#fff;}.b{fill:none;}</style></defs><g transform="translate(-490.513 -1608)"><g transform="translate(430 -1812.331)"><path class="a" d="M80.209,3424H62.3a1.794,1.794,0,0,0-1.791,1.792v10.748a1.794,1.794,0,0,0,1.791,1.792h17.9A1.794,1.794,0,0,0,82,3436.54v-10.748A1.794,1.794,0,0,0,80.209,3424Zm-11.948,7.8-5.016,4.3a.358.358,0,1,1-.466-.543l5.016-4.3a.358.358,0,0,1,.466.543Zm2.815.085a2.611,2.611,0,0,1-1.458-.419L62.81,3426.8a.358.358,0,0,1,.4-.592l6.807,4.658a2.005,2.005,0,0,0,2.1,0l7.172-4.662a.358.358,0,0,1,.391.6l-7.165,4.658A2.587,2.587,0,0,1,71.075,3431.881Zm8.689,4.175a.356.356,0,0,1-.5.039l-5.016-4.3a.358.358,0,0,1,.466-.543l5.016,4.3A.356.356,0,0,1,79.764,3436.056Z"/></g><rect class="b" width="22" height="22" transform="translate(490.513 1608)"/></g></svg>