<svg xmlns="http://www.w3.org/2000/svg" width="18" height="18" viewBox="0 0 18 18"><defs><style>.a{fill:#414141;}.b{fill:#f08424;}.c{fill:none;}</style></defs><g transform="translate(-1201 -52)"><g transform="translate(134 29)"><g transform="translate(-254.702 -2881.347)"><path class="a" d="M1336.1,2918.771l-1.1-1.913a5.641,5.641,0,0,1-.76-2.985v-1.724a4.858,4.858,0,0,0-3.818-4.615v-1.445a1.091,1.091,0,0,0-2.182,0v1.445a4.858,4.858,0,0,0-3.818,4.615v1.724a5.649,5.649,0,0,1-.763,2.99l-1.1,1.909a.272.272,0,0,0,.237.408h13.066a.272.272,0,0,0,.236-.408Z" transform="translate(0 0)"/><path class="a" d="M1333.627,2933.636a1.649,1.649,0,0,0,1.646-1.636h-3.294A1.649,1.649,0,0,0,1333.627,2933.636Z" transform="translate(-4.299 -12.274)"/></g><g transform="translate(3)"><circle class="b" cx="4" cy="4" r="4" transform="translate(1074 23)"/></g></g><rect class="c" width="18" height="18" transform="translate(1201 52)"/></g></svg>